<?xml version="1.0" encoding="utf-8"?>
<!-- Generator: Adobe Illustrator 23.0.1, SVG Export Plug-In . SVG Version: 6.00 Build 0)  -->
<svg version="1.1" xmlns="http://www.w3.org/2000/svg" xmlns:xlink="http://www.w3.org/1999/xlink" x="0px" y="0px"
	 viewBox="0 0 99 99" style="enable-background:new 0 0 99 99;" xml:space="preserve">
<g>
	<path d="M26.1,49.8V40h3.8v9.8c0,5.5-3.9,9.5-9.1,9.5s-9.1-4-9.1-9.5V40h3.8v9.8c0,3.4,2.3,5.9,5.3,5.9S26.1,53.2,26.1,49.8z"/>
	<path d="M49.6,49.8V40h3.8v9.8c0,5.5-3.9,9.5-9.1,9.5s-9.1-4-9.1-9.5V40H39v9.8c0,3.4,2.3,5.9,5.3,5.9S49.6,53.2,49.6,49.8z"/>
	<path d="M58.7,58.8v-19h3.8v19H58.7z"/>
	<path d="M87.3,49.3c0,5.4-4.2,9.4-9.9,9.4H68v-19h9.5C83.1,39.8,87.3,43.8,87.3,49.3z M71.8,55.5h5.7c3.4,0,5.9-2.6,5.9-6.1
		s-2.5-6.1-5.9-6.1h-5.7V55.5z"/>
</g>
<path d="M97.7,97.7H1.3V1.3h96.4V97.7z M5.1,93.9h88.8V5.1H5.1V93.9z"/>
</svg>
